<svg width="11" height="11" viewBox="0 0 11 11" fill="none" xmlns="http://www.w3.org/2000/svg">
<path d="M9.16667 2.30233H4.4V6.15933H3.8923V4.84828C3.89172 4.10547 3.67998 3.39331 3.30356 2.86806C2.92714 2.34281 2.41676 2.04735 1.88441 2.04651H0.733333V0H0V11H0.733333V9.47333L10.2667 9.57975V11H11V4.86046C10.9994 4.18224 10.8061 3.53202 10.4624 3.05244C10.1187 2.57286 9.65273 2.3031 9.16667 2.30233ZM0.733333 3.06977H1.88441C2.22233 3.0703 2.5463 3.25784 2.78524 3.59125C3.02418 3.92466 3.15859 4.37671 3.15897 4.84822V6.15926H0.733333V3.06977ZM10.2667 8.55647L0.733333 8.45005V7.18258H10.2667V8.55647ZM10.2667 6.15933H5.13333V3.32558H9.16667C9.4583 3.32605 9.7379 3.48791 9.94412 3.77565C10.1503 4.0634 10.2663 4.45353 10.2667 4.86046V6.15933Z" fill="#264D7F"/>
</svg>
