<svg width="11" height="11" viewBox="0 0 11 11" fill="none" xmlns="http://www.w3.org/2000/svg">
<path d="M7.33333 5.21053V1.73684L5.5 0L3.66667 1.73684V2.89474H0V11H11V5.21053H7.33333ZM2.44444 9.84211H1.22222V8.68421H2.44444V9.84211ZM2.44444 7.52632H1.22222V6.36842H2.44444V7.52632ZM2.44444 5.21053H1.22222V4.05263H2.44444V5.21053ZM6.11111 9.84211H4.88889V8.68421H6.11111V9.84211ZM6.11111 7.52632H4.88889V6.36842H6.11111V7.52632ZM6.11111 5.21053H4.88889V4.05263H6.11111V5.21053ZM6.11111 2.89474H4.88889V1.73684H6.11111V2.89474ZM9.77778 9.84211H8.55556V8.68421H9.77778V9.84211ZM9.77778 7.52632H8.55556V6.36842H9.77778V7.52632Z" fill="#264D7F"/>
</svg>
