<svg width="11" height="11" viewBox="0 0 11 11" fill="none" xmlns="http://www.w3.org/2000/svg">
<path d="M11 4.95H8.7065L10.4885 3.168L9.713 2.387L7.15 4.95H6.05V3.85L8.613 1.287L7.832 0.5115L6.05 2.2935V0H4.95V2.2935L3.168 0.5115L2.387 1.287L4.95 3.85V4.95H3.85L1.287 2.387L0.5115 3.168L2.2935 4.95H0V6.05H2.2935L0.5115 7.832L1.287 8.613L3.85 6.05H4.95V7.15L2.387 9.713L3.168 10.4885L4.95 8.7065V11H6.05V8.7065L7.832 10.4885L8.613 9.713L6.05 7.15V6.05H7.15L9.713 8.613L10.4885 7.832L8.7065 6.05H11V4.95Z" fill="#264D7F"/>
</svg>
