<svg width="114" height="44" viewBox="0 0 114 44" fill="none" xmlns="http://www.w3.org/2000/svg">
<path d="M8.12725 32.72C6.74058 32.6773 5.50325 32.5493 4.41525 32.336C3.32725 32.1013 2.33525 31.7813 1.43925 31.376V27.248C2.31392 27.6747 3.36992 28.0693 4.60725 28.432C5.84458 28.7733 7.01792 28.976 8.12725 29.04V24.208C6.88992 23.7173 5.83392 23.248 4.95925 22.8C4.10592 22.352 3.41258 21.8827 2.87925 21.392C2.36725 20.88 1.99392 20.3253 1.75925 19.728C1.52458 19.1093 1.40725 18.4053 1.40725 17.616C1.40725 16.5493 1.68458 15.632 2.23925 14.864C2.81525 14.0747 3.60458 13.4453 4.60725 12.976C5.63125 12.5067 6.80458 12.2187 8.12725 12.112V9.712H10.2713V12.048C11.4659 12.0907 12.5859 12.2293 13.6313 12.464C14.6979 12.6987 15.7326 13.04 16.7353 13.488L15.2633 17.136C14.4099 16.7733 13.5459 16.496 12.6713 16.304C11.8179 16.112 11.0179 15.984 10.2713 15.92V20.528C11.4233 20.9547 12.5219 21.424 13.5673 21.936C14.6126 22.4267 15.4553 23.056 16.0953 23.824C16.7566 24.592 17.0873 25.6053 17.0873 26.864C17.0873 28.4213 16.5219 29.7227 15.3913 30.768C14.2606 31.8133 12.5539 32.4427 10.2713 32.656V35.856H8.12725V32.72ZM10.2713 28.944C10.9966 28.816 11.5299 28.6027 11.8713 28.304C12.2126 27.984 12.3833 27.5787 12.3833 27.088C12.3833 26.7893 12.2979 26.5333 12.1273 26.32C11.9779 26.0853 11.7433 25.872 11.4233 25.68C11.1246 25.4667 10.7406 25.2533 10.2713 25.04V28.944ZM8.12725 15.984C7.70058 16.048 7.33792 16.1547 7.03925 16.304C6.74058 16.432 6.50592 16.6133 6.33525 16.848C6.18592 17.0613 6.11125 17.3173 6.11125 17.616C6.11125 17.9147 6.17525 18.1813 6.30325 18.416C6.45258 18.6293 6.67658 18.8427 6.97525 19.056C7.27392 19.248 7.65792 19.4507 8.12725 19.664V15.984ZM35.4958 20.912C35.4958 22.2133 35.3998 23.5147 35.2078 24.816C35.0158 26.096 34.6744 27.312 34.1838 28.464C33.7144 29.5947 33.0424 30.608 32.1678 31.504C31.3144 32.3787 30.2158 33.072 28.8718 33.584C27.5491 34.0747 25.9384 34.32 24.0398 34.32C23.5918 34.32 23.0691 34.2987 22.4718 34.256C21.8744 34.2347 21.3731 34.1813 20.9678 34.096V30.224C21.3944 30.3093 21.8424 30.384 22.3118 30.448C22.7811 30.512 23.2504 30.544 23.7198 30.544C25.1491 30.544 26.3224 30.3733 27.2398 30.032C28.1784 29.6907 28.9144 29.2 29.4478 28.56C29.9811 27.92 30.3651 27.1627 30.5998 26.288C30.8558 25.4133 31.0051 24.4533 31.0478 23.408H30.8558C30.5571 23.8987 30.1944 24.3467 29.7678 24.752C29.3624 25.1573 28.8398 25.4773 28.1998 25.712C27.5811 25.9467 26.7811 26.064 25.7998 26.064C24.4984 26.064 23.3678 25.7867 22.4078 25.232C21.4478 24.656 20.7011 23.8347 20.1678 22.768C19.6344 21.68 19.3678 20.368 19.3678 18.832C19.3678 17.168 19.6771 15.7493 20.2958 14.576C20.9358 13.3813 21.8424 12.4747 23.0158 11.856C24.1891 11.216 25.5651 10.896 27.1438 10.896C28.3171 10.896 29.4051 11.0987 30.4078 11.504C31.4318 11.9093 32.3171 12.528 33.0638 13.36C33.8318 14.1707 34.4291 15.2053 34.8558 16.464C35.2824 17.7227 35.4958 19.2053 35.4958 20.912ZM27.2398 14.768C26.3011 14.768 25.5331 15.088 24.9358 15.728C24.3384 16.368 24.0398 17.3813 24.0398 18.768C24.0398 19.8773 24.2958 20.752 24.8078 21.392C25.3198 22.032 26.0984 22.352 27.1438 22.352C27.8691 22.352 28.4878 22.192 28.9998 21.872C29.5331 21.552 29.9491 21.1573 30.2478 20.688C30.5464 20.1973 30.6958 19.696 30.6958 19.184C30.6958 18.6507 30.6211 18.128 30.4718 17.616C30.3224 17.0827 30.0984 16.6027 29.7998 16.176C29.5224 15.7493 29.1704 15.408 28.7438 15.152C28.3171 14.896 27.8158 14.768 27.2398 14.768ZM53.8083 20.912C53.8083 22.2133 53.7123 23.5147 53.5203 24.816C53.3283 26.096 52.9869 27.312 52.4963 28.464C52.0269 29.5947 51.3549 30.608 50.4803 31.504C49.6269 32.3787 48.5283 33.072 47.1843 33.584C45.8616 34.0747 44.2509 34.32 42.3523 34.32C41.9043 34.32 41.3816 34.2987 40.7843 34.256C40.1869 34.2347 39.6856 34.1813 39.2803 34.096V30.224C39.7069 30.3093 40.1549 30.384 40.6243 30.448C41.0936 30.512 41.5629 30.544 42.0323 30.544C43.4616 30.544 44.6349 30.3733 45.5523 30.032C46.4909 29.6907 47.2269 29.2 47.7603 28.56C48.2936 27.92 48.6776 27.1627 48.9123 26.288C49.1683 25.4133 49.3176 24.4533 49.3603 23.408H49.1683C48.8696 23.8987 48.5069 24.3467 48.0803 24.752C47.6749 25.1573 47.1523 25.4773 46.5123 25.712C45.8936 25.9467 45.0936 26.064 44.1123 26.064C42.8109 26.064 41.6803 25.7867 40.7203 25.232C39.7603 24.656 39.0136 23.8347 38.4803 22.768C37.9469 21.68 37.6803 20.368 37.6803 18.832C37.6803 17.168 37.9896 15.7493 38.6083 14.576C39.2483 13.3813 40.1549 12.4747 41.3283 11.856C42.5016 11.216 43.8776 10.896 45.4563 10.896C46.6296 10.896 47.7176 11.0987 48.7203 11.504C49.7443 11.9093 50.6296 12.528 51.3763 13.36C52.1443 14.1707 52.7416 15.2053 53.1683 16.464C53.5949 17.7227 53.8083 19.2053 53.8083 20.912ZM45.5523 14.768C44.6136 14.768 43.8456 15.088 43.2483 15.728C42.6509 16.368 42.3523 17.3813 42.3523 18.768C42.3523 19.8773 42.6083 20.752 43.1203 21.392C43.6323 22.032 44.4109 22.352 45.4563 22.352C46.1816 22.352 46.8003 22.192 47.3123 21.872C47.8456 21.552 48.2616 21.1573 48.5603 20.688C48.8589 20.1973 49.0083 19.696 49.0083 19.184C49.0083 18.6507 48.9336 18.128 48.7843 17.616C48.6349 17.0827 48.4109 16.6027 48.1123 16.176C47.8349 15.7493 47.4829 15.408 47.0563 15.152C46.6296 14.896 46.1283 14.768 45.5523 14.768Z" fill="#0F1715"/>
<path d="M54.912 20.88C54.912 20.3893 55.0453 20.048 55.312 19.856C55.5787 19.6533 55.904 19.552 56.288 19.552C56.6613 19.552 56.9813 19.6533 57.248 19.856C57.5147 20.048 57.648 20.3893 57.648 20.88C57.648 21.3493 57.5147 21.6907 57.248 21.904C56.9813 22.1067 56.6613 22.208 56.288 22.208C55.904 22.208 55.5787 22.1067 55.312 21.904C55.0453 21.6907 54.912 21.3493 54.912 20.88ZM67.1385 15.456C67.1385 16.1067 67.0905 16.7573 66.9945 17.408C66.8985 18.048 66.7278 18.656 66.4825 19.232C66.2478 19.7973 65.9118 20.304 65.4745 20.752C65.0478 21.1893 64.4985 21.536 63.8265 21.792C63.1652 22.0373 62.3598 22.16 61.4105 22.16C61.1865 22.16 60.9252 22.1493 60.6265 22.128C60.3278 22.1173 60.0772 22.0907 59.8745 22.048V20.112C60.0878 20.1547 60.3118 20.192 60.5465 20.224C60.7812 20.256 61.0158 20.272 61.2505 20.272C61.9652 20.272 62.5518 20.1867 63.0105 20.016C63.4798 19.8453 63.8478 19.6 64.1145 19.28C64.3812 18.96 64.5732 18.5813 64.6905 18.144C64.8185 17.7067 64.8932 17.2267 64.9145 16.704H64.8185C64.6692 16.9493 64.4878 17.1733 64.2745 17.376C64.0718 17.5787 63.8105 17.7387 63.4905 17.856C63.1812 17.9733 62.7812 18.032 62.2905 18.032C61.6398 18.032 61.0745 17.8933 60.5945 17.616C60.1145 17.328 59.7412 16.9173 59.4745 16.384C59.2078 15.84 59.0745 15.184 59.0745 14.416C59.0745 13.584 59.2292 12.8747 59.5385 12.288C59.8585 11.6907 60.3118 11.2373 60.8985 10.928C61.4852 10.608 62.1732 10.448 62.9625 10.448C63.5492 10.448 64.0932 10.5493 64.5945 10.752C65.1065 10.9547 65.5492 11.264 65.9225 11.68C66.3065 12.0853 66.6052 12.6027 66.8185 13.232C67.0318 13.8613 67.1385 14.6027 67.1385 15.456ZM63.0105 12.384C62.5412 12.384 62.1572 12.544 61.8585 12.864C61.5598 13.184 61.4105 13.6907 61.4105 14.384C61.4105 14.9387 61.5385 15.376 61.7945 15.696C62.0505 16.016 62.4398 16.176 62.9625 16.176C63.3252 16.176 63.6345 16.096 63.8905 15.936C64.1572 15.776 64.3652 15.5787 64.5145 15.344C64.6638 15.0987 64.7385 14.848 64.7385 14.592C64.7385 14.3253 64.7012 14.064 64.6265 13.808C64.5518 13.5413 64.4398 13.3013 64.2905 13.088C64.1518 12.8747 63.9758 12.704 63.7625 12.576C63.5492 12.448 63.2985 12.384 63.0105 12.384ZM76.2948 15.456C76.2948 16.1067 76.2468 16.7573 76.1508 17.408C76.0548 18.048 75.8841 18.656 75.6388 19.232C75.4041 19.7973 75.0681 20.304 74.6308 20.752C74.2041 21.1893 73.6548 21.536 72.9828 21.792C72.3214 22.0373 71.5161 22.16 70.5668 22.16C70.3428 22.16 70.0814 22.1493 69.7828 22.128C69.4841 22.1173 69.2334 22.0907 69.0308 22.048V20.112C69.2441 20.1547 69.4681 20.192 69.7028 20.224C69.9374 20.256 70.1721 20.272 70.4068 20.272C71.1214 20.272 71.7081 20.1867 72.1668 20.016C72.6361 19.8453 73.0041 19.6 73.2708 19.28C73.5374 18.96 73.7294 18.5813 73.8468 18.144C73.9748 17.7067 74.0494 17.2267 74.0708 16.704H73.9748C73.8254 16.9493 73.6441 17.1733 73.4308 17.376C73.2281 17.5787 72.9668 17.7387 72.6468 17.856C72.3374 17.9733 71.9374 18.032 71.4468 18.032C70.7961 18.032 70.2308 17.8933 69.7508 17.616C69.2708 17.328 68.8974 16.9173 68.6308 16.384C68.3641 15.84 68.2308 15.184 68.2308 14.416C68.2308 13.584 68.3854 12.8747 68.6948 12.288C69.0148 11.6907 69.4681 11.2373 70.0548 10.928C70.6414 10.608 71.3294 10.448 72.1188 10.448C72.7054 10.448 73.2494 10.5493 73.7508 10.752C74.2628 10.9547 74.7054 11.264 75.0788 11.68C75.4628 12.0853 75.7614 12.6027 75.9748 13.232C76.1881 13.8613 76.2948 14.6027 76.2948 15.456ZM72.1668 12.384C71.6974 12.384 71.3134 12.544 71.0148 12.864C70.7161 13.184 70.5668 13.6907 70.5668 14.384C70.5668 14.9387 70.6948 15.376 70.9508 15.696C71.2068 16.016 71.5961 16.176 72.1188 16.176C72.4814 16.176 72.7908 16.096 73.0468 15.936C73.3134 15.776 73.5214 15.5787 73.6708 15.344C73.8201 15.0987 73.8948 14.848 73.8948 14.592C73.8948 14.3253 73.8574 14.064 73.7828 13.808C73.7081 13.5413 73.5961 13.3013 73.4468 13.088C73.3081 12.8747 73.1321 12.704 72.9188 12.576C72.7054 12.448 72.4548 12.384 72.1668 12.384Z" fill="#0F1715"/>
<path d="M58.62 26.86L55.96 34H55.1L57.76 26.86H58.62ZM65.9207 30.42C65.9207 30.9733 65.8507 31.4767 65.7107 31.93C65.5707 32.3767 65.3607 32.7633 65.0807 33.09C64.8074 33.4167 64.464 33.6667 64.0507 33.84C63.644 34.0133 63.1707 34.1 62.6307 34.1C62.0707 34.1 61.584 34.0133 61.1707 33.84C60.7574 33.66 60.414 33.41 60.1407 33.09C59.8674 32.7633 59.664 32.3733 59.5307 31.92C59.3974 31.4667 59.3307 30.9633 59.3307 30.41C59.3307 29.6767 59.4507 29.0367 59.6907 28.49C59.9307 27.9433 60.294 27.5167 60.7807 27.21C61.274 26.9033 61.894 26.75 62.6407 26.75C63.354 26.75 63.954 26.9033 64.4407 27.21C64.9274 27.51 65.294 27.9367 65.5407 28.49C65.794 29.0367 65.9207 29.68 65.9207 30.42ZM60.2807 30.42C60.2807 31.02 60.364 31.5367 60.5307 31.97C60.6974 32.4033 60.954 32.7367 61.3007 32.97C61.654 33.2033 62.0974 33.32 62.6307 33.32C63.1707 33.32 63.6107 33.2033 63.9507 32.97C64.2974 32.7367 64.554 32.4033 64.7207 31.97C64.8874 31.5367 64.9707 31.02 64.9707 30.42C64.9707 29.52 64.784 28.8167 64.4107 28.31C64.0374 27.7967 63.4474 27.54 62.6407 27.54C62.1007 27.54 61.654 27.6567 61.3007 27.89C60.954 28.1167 60.6974 28.4467 60.5307 28.88C60.364 29.3067 60.2807 29.82 60.2807 30.42ZM69.9632 28.54C70.6032 28.54 71.0865 28.6967 71.4132 29.01C71.7399 29.3167 71.9032 29.8167 71.9032 30.51V34H71.0332V30.57C71.0332 30.1367 70.9365 29.8133 70.7432 29.6C70.5499 29.3867 70.2465 29.28 69.8332 29.28C69.2399 29.28 68.8299 29.4467 68.6032 29.78C68.3765 30.1133 68.2632 30.5933 68.2632 31.22V34H67.3832V28.64H68.0932L68.2232 29.37H68.2732C68.3932 29.1833 68.5399 29.03 68.7132 28.91C68.8932 28.7833 69.0899 28.69 69.3032 28.63C69.5165 28.57 69.7365 28.54 69.9632 28.54ZM75.6348 28.54C76.0948 28.54 76.4882 28.64 76.8148 28.84C77.1482 29.04 77.4015 29.3233 77.5748 29.69C77.7548 30.05 77.8448 30.4733 77.8448 30.96V31.49H74.1748C74.1882 32.0967 74.3415 32.56 74.6348 32.88C74.9348 33.1933 75.3515 33.35 75.8848 33.35C76.2248 33.35 76.5248 33.32 76.7848 33.26C77.0515 33.1933 77.3248 33.1 77.6048 32.98V33.75C77.3315 33.87 77.0615 33.9567 76.7948 34.01C76.5282 34.07 76.2115 34.1 75.8448 34.1C75.3382 34.1 74.8882 33.9967 74.4948 33.79C74.1082 33.5833 73.8048 33.2767 73.5848 32.87C73.3715 32.4567 73.2648 31.9533 73.2648 31.36C73.2648 30.7733 73.3615 30.27 73.5548 29.85C73.7548 29.43 74.0315 29.1067 74.3848 28.88C74.7448 28.6533 75.1615 28.54 75.6348 28.54ZM75.6248 29.26C75.2048 29.26 74.8715 29.3967 74.6248 29.67C74.3848 29.9367 74.2415 30.31 74.1948 30.79H76.9248C76.9248 30.4833 76.8782 30.2167 76.7848 29.99C76.6915 29.7633 76.5482 29.5867 76.3548 29.46C76.1682 29.3267 75.9248 29.26 75.6248 29.26ZM87.647 30.36C87.647 31.16 87.497 31.83 87.197 32.37C86.9037 32.91 86.4804 33.3167 85.927 33.59C85.3737 33.8633 84.7037 34 83.917 34H81.927V26.86H84.127C84.847 26.86 85.4704 26.9933 85.997 27.26C86.5237 27.5267 86.9304 27.92 87.217 28.44C87.5037 28.9533 87.647 29.5933 87.647 30.36ZM86.697 30.39C86.697 29.7567 86.5904 29.2367 86.377 28.83C86.1704 28.4233 85.8637 28.1233 85.457 27.93C85.057 27.73 84.5704 27.63 83.997 27.63H82.827V33.23H83.797C84.7637 33.23 85.487 32.9933 85.967 32.52C86.4537 32.04 86.697 31.33 86.697 30.39ZM91.1417 28.55C91.7951 28.55 92.2784 28.6933 92.5917 28.98C92.9051 29.2667 93.0617 29.7233 93.0617 30.35V34H92.4217L92.2517 33.24H92.2117C92.0584 33.4333 91.8984 33.5967 91.7317 33.73C91.5717 33.8567 91.3851 33.95 91.1717 34.01C90.9651 34.07 90.7117 34.1 90.4117 34.1C90.0917 34.1 89.8017 34.0433 89.5417 33.93C89.2884 33.8167 89.0884 33.6433 88.9417 33.41C88.7951 33.17 88.7217 32.87 88.7217 32.51C88.7217 31.9767 88.9317 31.5667 89.3517 31.28C89.7717 30.9867 90.4184 30.8267 91.2917 30.8L92.2017 30.77V30.45C92.2017 30.0033 92.1051 29.6933 91.9117 29.52C91.7184 29.3467 91.4451 29.26 91.0917 29.26C90.8117 29.26 90.5451 29.3033 90.2917 29.39C90.0384 29.47 89.8017 29.5633 89.5817 29.67L89.3117 29.01C89.5451 28.8833 89.8217 28.7767 90.1417 28.69C90.4617 28.5967 90.7951 28.55 91.1417 28.55ZM91.4017 31.41C90.7351 31.4367 90.2717 31.5433 90.0117 31.73C89.7584 31.9167 89.6317 32.18 89.6317 32.52C89.6317 32.82 89.7217 33.04 89.9017 33.18C90.0884 33.32 90.3251 33.39 90.6117 33.39C91.0651 33.39 91.4417 33.2667 91.7417 33.02C92.0417 32.7667 92.1917 32.38 92.1917 31.86V31.38L91.4017 31.41ZM93.8772 28.64H94.8172L95.9772 31.69C96.0439 31.87 96.1039 32.0433 96.1572 32.21C96.2172 32.3767 96.2705 32.54 96.3172 32.7C96.3639 32.8533 96.4005 33.0033 96.4272 33.15H96.4672C96.5072 32.9833 96.5705 32.7667 96.6572 32.5C96.7439 32.2267 96.8339 31.9533 96.9272 31.68L98.0172 28.64H98.9672L96.6572 34.74C96.5305 35.0733 96.3805 35.3633 96.2072 35.61C96.0405 35.8633 95.8339 36.0567 95.5872 36.19C95.3472 36.33 95.0539 36.4 94.7072 36.4C94.5472 36.4 94.4072 36.39 94.2872 36.37C94.1672 36.3567 94.0639 36.34 93.9772 36.32V35.62C94.0505 35.6333 94.1372 35.6467 94.2372 35.66C94.3439 35.6733 94.4539 35.68 94.5672 35.68C94.7739 35.68 94.9505 35.64 95.0972 35.56C95.2505 35.4867 95.3805 35.3767 95.4872 35.23C95.5939 35.09 95.6839 34.9233 95.7572 34.73L96.0372 34.02L93.8772 28.64Z" fill="black" fill-opacity="0.6"/>
</svg>
