<svg width="118" height="44" viewBox="0 0 118 44" fill="none" xmlns="http://www.w3.org/2000/svg">
<path d="M8.471 32.72C7.08433 32.6773 5.847 32.5493 4.759 32.336C3.671 32.1013 2.679 31.7813 1.783 31.376V27.248C2.65767 27.6747 3.71367 28.0693 4.951 28.432C6.18833 28.7733 7.36167 28.976 8.471 29.04V24.208C7.23367 23.7173 6.17767 23.248 5.303 22.8C4.44967 22.352 3.75633 21.8827 3.223 21.392C2.711 20.88 2.33767 20.3253 2.103 19.728C1.86833 19.1093 1.751 18.4053 1.751 17.616C1.751 16.5493 2.02833 15.632 2.583 14.864C3.159 14.0747 3.94833 13.4453 4.951 12.976C5.975 12.5067 7.14833 12.2187 8.471 12.112V9.712H10.615V12.048C11.8097 12.0907 12.9297 12.2293 13.975 12.464C15.0417 12.6987 16.0763 13.04 17.079 13.488L15.607 17.136C14.7537 16.7733 13.8897 16.496 13.015 16.304C12.1617 16.112 11.3617 15.984 10.615 15.92V20.528C11.767 20.9547 12.8657 21.424 13.911 21.936C14.9563 22.4267 15.799 23.056 16.439 23.824C17.1003 24.592 17.431 25.6053 17.431 26.864C17.431 28.4213 16.8657 29.7227 15.735 30.768C14.6043 31.8133 12.8977 32.4427 10.615 32.656V35.856H8.471V32.72ZM10.615 28.944C11.3403 28.816 11.8737 28.6027 12.215 28.304C12.5563 27.984 12.727 27.5787 12.727 27.088C12.727 26.7893 12.6417 26.5333 12.471 26.32C12.3217 26.0853 12.087 25.872 11.767 25.68C11.4683 25.4667 11.0843 25.2533 10.615 25.04V28.944ZM8.471 15.984C8.04433 16.048 7.68167 16.1547 7.383 16.304C7.08433 16.432 6.84967 16.6133 6.679 16.848C6.52967 17.0613 6.455 17.3173 6.455 17.616C6.455 17.9147 6.519 18.1813 6.647 18.416C6.79633 18.6293 7.02033 18.8427 7.319 19.056C7.61767 19.248 8.00167 19.4507 8.471 19.664V15.984ZM31.9035 34H27.0715V20.784C27.0715 20.4213 27.0715 19.9733 27.0715 19.44C27.0928 18.9067 27.1142 18.352 27.1355 17.776C27.1568 17.2 27.1782 16.688 27.1995 16.24C27.0928 16.368 26.8582 16.6027 26.4955 16.944C26.1542 17.264 25.8342 17.552 25.5355 17.808L22.9115 19.92L20.5755 17.008L27.9355 11.152H31.9035V34ZM46.6 19.408C47.9867 19.408 49.224 19.6747 50.312 20.208C51.4 20.7413 52.2533 21.52 52.872 22.544C53.512 23.568 53.832 24.8373 53.832 26.352C53.832 27.9947 53.4907 29.4133 52.808 30.608C52.1253 31.8027 51.1013 32.72 49.736 33.36C48.392 34 46.7173 34.32 44.712 34.32C43.5173 34.32 42.3867 34.2133 41.32 34C40.2747 33.7867 39.3573 33.4773 38.568 33.072V28.912C39.3573 29.3173 40.3067 29.6693 41.416 29.968C42.5253 30.2453 43.5707 30.384 44.552 30.384C45.512 30.384 46.312 30.256 46.952 30C47.6133 29.744 48.1147 29.3493 48.456 28.816C48.7973 28.2827 48.968 27.6 48.968 26.768C48.968 25.6373 48.5947 24.784 47.848 24.208C47.1013 23.6107 45.9493 23.312 44.392 23.312C43.7947 23.312 43.176 23.376 42.536 23.504C41.896 23.6107 41.3627 23.7173 40.936 23.824L39.016 22.8L39.88 11.152H52.264V15.248H44.104L43.688 19.728C44.0507 19.664 44.4347 19.6 44.84 19.536C45.2667 19.4507 45.8533 19.408 46.6 19.408ZM72.4325 22.576C72.4325 24.4107 72.2832 26.0533 71.9845 27.504C71.7072 28.9547 71.2485 30.192 70.6085 31.216C69.9898 32.2187 69.1685 32.9867 68.1445 33.52C67.1418 34.0533 65.9045 34.32 64.4325 34.32C62.5978 34.32 61.0938 33.8507 59.9205 32.912C58.7472 31.9733 57.8725 30.6293 57.2965 28.88C56.7418 27.1307 56.4645 25.0293 56.4645 22.576C56.4645 20.1013 56.7205 17.9893 57.2325 16.24C57.7445 14.4907 58.5872 13.1467 59.7605 12.208C60.9338 11.2693 62.4912 10.8 64.4325 10.8C66.2672 10.8 67.7712 11.2693 68.9445 12.208C70.1178 13.1253 70.9925 14.4693 71.5685 16.24C72.1445 17.9893 72.4325 20.1013 72.4325 22.576ZM61.2645 22.576C61.2645 24.304 61.3605 25.7547 61.5525 26.928C61.7445 28.08 62.0645 28.9547 62.5125 29.552C62.9818 30.128 63.6218 30.416 64.4325 30.416C65.2432 30.416 65.8725 30.128 66.3205 29.552C66.7898 28.976 67.1205 28.112 67.3125 26.96C67.5258 25.7867 67.6325 24.3253 67.6325 22.576C67.6325 20.8267 67.5258 19.376 67.3125 18.224C67.1205 17.0507 66.7898 16.176 66.3205 15.6C65.8725 15.0027 65.2432 14.704 64.4325 14.704C63.6218 14.704 62.9818 15.0027 62.5125 15.6C62.0645 16.176 61.7445 17.0507 61.5525 18.224C61.3605 19.376 61.2645 20.8267 61.2645 22.576Z" fill="#0F1715"/>
<path d="M74.912 20.88C74.912 20.3893 75.0453 20.048 75.312 19.856C75.5787 19.6533 75.904 19.552 76.288 19.552C76.6613 19.552 76.9813 19.6533 77.248 19.856C77.5147 20.048 77.648 20.3893 77.648 20.88C77.648 21.3493 77.5147 21.6907 77.248 21.904C76.9813 22.1067 76.6613 22.208 76.288 22.208C75.904 22.208 75.5787 22.1067 75.312 21.904C75.0453 21.6907 74.912 21.3493 74.912 20.88ZM87.1385 15.456C87.1385 16.1067 87.0905 16.7573 86.9945 17.408C86.8985 18.048 86.7278 18.656 86.4825 19.232C86.2478 19.7973 85.9118 20.304 85.4745 20.752C85.0478 21.1893 84.4985 21.536 83.8265 21.792C83.1652 22.0373 82.3598 22.16 81.4105 22.16C81.1865 22.16 80.9252 22.1493 80.6265 22.128C80.3278 22.1173 80.0772 22.0907 79.8745 22.048V20.112C80.0878 20.1547 80.3118 20.192 80.5465 20.224C80.7812 20.256 81.0158 20.272 81.2505 20.272C81.9652 20.272 82.5518 20.1867 83.0105 20.016C83.4798 19.8453 83.8478 19.6 84.1145 19.28C84.3812 18.96 84.5732 18.5813 84.6905 18.144C84.8185 17.7067 84.8932 17.2267 84.9145 16.704H84.8185C84.6692 16.9493 84.4878 17.1733 84.2745 17.376C84.0718 17.5787 83.8105 17.7387 83.4905 17.856C83.1812 17.9733 82.7812 18.032 82.2905 18.032C81.6398 18.032 81.0745 17.8933 80.5945 17.616C80.1145 17.328 79.7412 16.9173 79.4745 16.384C79.2078 15.84 79.0745 15.184 79.0745 14.416C79.0745 13.584 79.2292 12.8747 79.5385 12.288C79.8585 11.6907 80.3118 11.2373 80.8985 10.928C81.4852 10.608 82.1732 10.448 82.9625 10.448C83.5492 10.448 84.0932 10.5493 84.5945 10.752C85.1065 10.9547 85.5492 11.264 85.9225 11.68C86.3065 12.0853 86.6052 12.6027 86.8185 13.232C87.0318 13.8613 87.1385 14.6027 87.1385 15.456ZM83.0105 12.384C82.5412 12.384 82.1572 12.544 81.8585 12.864C81.5598 13.184 81.4105 13.6907 81.4105 14.384C81.4105 14.9387 81.5385 15.376 81.7945 15.696C82.0505 16.016 82.4398 16.176 82.9625 16.176C83.3252 16.176 83.6345 16.096 83.8905 15.936C84.1572 15.776 84.3652 15.5787 84.5145 15.344C84.6638 15.0987 84.7385 14.848 84.7385 14.592C84.7385 14.3253 84.7012 14.064 84.6265 13.808C84.5518 13.5413 84.4398 13.3013 84.2905 13.088C84.1518 12.8747 83.9758 12.704 83.7625 12.576C83.5492 12.448 83.2985 12.384 83.0105 12.384ZM96.2948 15.456C96.2948 16.1067 96.2468 16.7573 96.1508 17.408C96.0548 18.048 95.8841 18.656 95.6388 19.232C95.4041 19.7973 95.0681 20.304 94.6308 20.752C94.2041 21.1893 93.6548 21.536 92.9828 21.792C92.3214 22.0373 91.5161 22.16 90.5668 22.16C90.3428 22.16 90.0814 22.1493 89.7828 22.128C89.4841 22.1173 89.2334 22.0907 89.0308 22.048V20.112C89.2441 20.1547 89.4681 20.192 89.7028 20.224C89.9374 20.256 90.1721 20.272 90.4068 20.272C91.1214 20.272 91.7081 20.1867 92.1668 20.016C92.6361 19.8453 93.0041 19.6 93.2708 19.28C93.5374 18.96 93.7294 18.5813 93.8468 18.144C93.9748 17.7067 94.0494 17.2267 94.0708 16.704H93.9748C93.8254 16.9493 93.6441 17.1733 93.4308 17.376C93.2281 17.5787 92.9668 17.7387 92.6468 17.856C92.3374 17.9733 91.9374 18.032 91.4468 18.032C90.7961 18.032 90.2308 17.8933 89.7508 17.616C89.2708 17.328 88.8974 16.9173 88.6308 16.384C88.3641 15.84 88.2308 15.184 88.2308 14.416C88.2308 13.584 88.3854 12.8747 88.6948 12.288C89.0148 11.6907 89.4681 11.2373 90.0548 10.928C90.6414 10.608 91.3294 10.448 92.1188 10.448C92.7054 10.448 93.2494 10.5493 93.7508 10.752C94.2628 10.9547 94.7054 11.264 95.0788 11.68C95.4628 12.0853 95.7614 12.6027 95.9748 13.232C96.1881 13.8613 96.2948 14.6027 96.2948 15.456ZM92.1668 12.384C91.6974 12.384 91.3134 12.544 91.0148 12.864C90.7161 13.184 90.5668 13.6907 90.5668 14.384C90.5668 14.9387 90.6948 15.376 90.9508 15.696C91.2068 16.016 91.5961 16.176 92.1188 16.176C92.4814 16.176 92.7908 16.096 93.0468 15.936C93.3134 15.776 93.5214 15.5787 93.6708 15.344C93.8201 15.0987 93.8948 14.848 93.8948 14.592C93.8948 14.3253 93.8574 14.064 93.7828 13.808C93.7081 13.5413 93.5961 13.3013 93.4468 13.088C93.3081 12.8747 93.1321 12.704 92.9188 12.576C92.7054 12.448 92.4548 12.384 92.1668 12.384Z" fill="#0F1715"/>
<path d="M77.62 26.86L74.96 34H74.1L76.76 26.86H77.62ZM84.9207 30.42C84.9207 30.9733 84.8507 31.4767 84.7107 31.93C84.5707 32.3767 84.3607 32.7633 84.0807 33.09C83.8074 33.4167 83.464 33.6667 83.0507 33.84C82.644 34.0133 82.1707 34.1 81.6307 34.1C81.0707 34.1 80.584 34.0133 80.1707 33.84C79.7574 33.66 79.414 33.41 79.1407 33.09C78.8674 32.7633 78.664 32.3733 78.5307 31.92C78.3974 31.4667 78.3307 30.9633 78.3307 30.41C78.3307 29.6767 78.4507 29.0367 78.6907 28.49C78.9307 27.9433 79.294 27.5167 79.7807 27.21C80.274 26.9033 80.894 26.75 81.6407 26.75C82.354 26.75 82.954 26.9033 83.4407 27.21C83.9274 27.51 84.294 27.9367 84.5407 28.49C84.794 29.0367 84.9207 29.68 84.9207 30.42ZM79.2807 30.42C79.2807 31.02 79.364 31.5367 79.5307 31.97C79.6974 32.4033 79.954 32.7367 80.3007 32.97C80.654 33.2033 81.0974 33.32 81.6307 33.32C82.1707 33.32 82.6107 33.2033 82.9507 32.97C83.2974 32.7367 83.554 32.4033 83.7207 31.97C83.8874 31.5367 83.9707 31.02 83.9707 30.42C83.9707 29.52 83.784 28.8167 83.4107 28.31C83.0374 27.7967 82.4474 27.54 81.6407 27.54C81.1007 27.54 80.654 27.6567 80.3007 27.89C79.954 28.1167 79.6974 28.4467 79.5307 28.88C79.364 29.3067 79.2807 29.82 79.2807 30.42ZM88.9632 28.54C89.6032 28.54 90.0865 28.6967 90.4132 29.01C90.7399 29.3167 90.9032 29.8167 90.9032 30.51V34H90.0332V30.57C90.0332 30.1367 89.9365 29.8133 89.7432 29.6C89.5499 29.3867 89.2465 29.28 88.8332 29.28C88.2399 29.28 87.8299 29.4467 87.6032 29.78C87.3765 30.1133 87.2632 30.5933 87.2632 31.22V34H86.3832V28.64H87.0932L87.2232 29.37H87.2732C87.3932 29.1833 87.5399 29.03 87.7132 28.91C87.8932 28.7833 88.0899 28.69 88.3032 28.63C88.5165 28.57 88.7365 28.54 88.9632 28.54ZM94.6348 28.54C95.0948 28.54 95.4882 28.64 95.8148 28.84C96.1482 29.04 96.4015 29.3233 96.5748 29.69C96.7548 30.05 96.8448 30.4733 96.8448 30.96V31.49H93.1748C93.1882 32.0967 93.3415 32.56 93.6348 32.88C93.9348 33.1933 94.3515 33.35 94.8848 33.35C95.2248 33.35 95.5248 33.32 95.7848 33.26C96.0515 33.1933 96.3248 33.1 96.6048 32.98V33.75C96.3315 33.87 96.0615 33.9567 95.7948 34.01C95.5282 34.07 95.2115 34.1 94.8448 34.1C94.3382 34.1 93.8882 33.9967 93.4948 33.79C93.1082 33.5833 92.8048 33.2767 92.5848 32.87C92.3715 32.4567 92.2648 31.9533 92.2648 31.36C92.2648 30.7733 92.3615 30.27 92.5548 29.85C92.7548 29.43 93.0315 29.1067 93.3848 28.88C93.7448 28.6533 94.1615 28.54 94.6348 28.54ZM94.6248 29.26C94.2048 29.26 93.8715 29.3967 93.6248 29.67C93.3848 29.9367 93.2415 30.31 93.1948 30.79H95.9248C95.9248 30.4833 95.8782 30.2167 95.7848 29.99C95.6915 29.7633 95.5482 29.5867 95.3548 29.46C95.1682 29.3267 94.9248 29.26 94.6248 29.26ZM106.647 30.36C106.647 31.16 106.497 31.83 106.197 32.37C105.904 32.91 105.48 33.3167 104.927 33.59C104.374 33.8633 103.704 34 102.917 34H100.927V26.86H103.127C103.847 26.86 104.47 26.9933 104.997 27.26C105.524 27.5267 105.93 27.92 106.217 28.44C106.504 28.9533 106.647 29.5933 106.647 30.36ZM105.697 30.39C105.697 29.7567 105.59 29.2367 105.377 28.83C105.17 28.4233 104.864 28.1233 104.457 27.93C104.057 27.73 103.57 27.63 102.997 27.63H101.827V33.23H102.797C103.764 33.23 104.487 32.9933 104.967 32.52C105.454 32.04 105.697 31.33 105.697 30.39ZM110.142 28.55C110.795 28.55 111.278 28.6933 111.592 28.98C111.905 29.2667 112.062 29.7233 112.062 30.35V34H111.422L111.252 33.24H111.212C111.058 33.4333 110.898 33.5967 110.732 33.73C110.572 33.8567 110.385 33.95 110.172 34.01C109.965 34.07 109.712 34.1 109.412 34.1C109.092 34.1 108.802 34.0433 108.542 33.93C108.288 33.8167 108.088 33.6433 107.942 33.41C107.795 33.17 107.722 32.87 107.722 32.51C107.722 31.9767 107.932 31.5667 108.352 31.28C108.772 30.9867 109.418 30.8267 110.292 30.8L111.202 30.77V30.45C111.202 30.0033 111.105 29.6933 110.912 29.52C110.718 29.3467 110.445 29.26 110.092 29.26C109.812 29.26 109.545 29.3033 109.292 29.39C109.038 29.47 108.802 29.5633 108.582 29.67L108.312 29.01C108.545 28.8833 108.822 28.7767 109.142 28.69C109.462 28.5967 109.795 28.55 110.142 28.55ZM110.402 31.41C109.735 31.4367 109.272 31.5433 109.012 31.73C108.758 31.9167 108.632 32.18 108.632 32.52C108.632 32.82 108.722 33.04 108.902 33.18C109.088 33.32 109.325 33.39 109.612 33.39C110.065 33.39 110.442 33.2667 110.742 33.02C111.042 32.7667 111.192 32.38 111.192 31.86V31.38L110.402 31.41ZM112.877 28.64H113.817L114.977 31.69C115.044 31.87 115.104 32.0433 115.157 32.21C115.217 32.3767 115.271 32.54 115.317 32.7C115.364 32.8533 115.401 33.0033 115.427 33.15H115.467C115.507 32.9833 115.571 32.7667 115.657 32.5C115.744 32.2267 115.834 31.9533 115.927 31.68L117.017 28.64H117.967L115.657 34.74C115.531 35.0733 115.381 35.3633 115.207 35.61C115.041 35.8633 114.834 36.0567 114.587 36.19C114.347 36.33 114.054 36.4 113.707 36.4C113.547 36.4 113.407 36.39 113.287 36.37C113.167 36.3567 113.064 36.34 112.977 36.32V35.62C113.051 35.6333 113.137 35.6467 113.237 35.66C113.344 35.6733 113.454 35.68 113.567 35.68C113.774 35.68 113.951 35.64 114.097 35.56C114.251 35.4867 114.381 35.3767 114.487 35.23C114.594 35.09 114.684 34.9233 114.757 34.73L115.037 34.02L112.877 28.64Z" fill="black" fill-opacity="0.6"/>
</svg>
