<svg width="30" height="30" viewBox="0 0 30 30" fill="none" xmlns="http://www.w3.org/2000/svg">
<path d="M27.7649 10.8199C26.811 11.2419 25.7994 11.5191 24.7637 11.6424C25.855 10.9888 26.6715 9.96083 27.0612 8.74991C26.0362 9.35991 24.9124 9.78741 23.7424 10.0187C22.9557 9.17688 21.9129 8.61861 20.7761 8.43064C19.6394 8.24267 18.4723 8.43552 17.4565 8.97922C16.4407 9.52293 15.6329 10.387 15.1588 11.4371C14.6847 12.4873 14.5708 13.6646 14.8349 14.7862C12.7561 14.6821 10.7224 14.1421 8.86584 13.201C7.0093 12.2599 5.37146 10.9389 4.05866 9.32366C3.59402 10.1217 3.34986 11.0289 3.35116 11.9524C3.35116 13.7649 4.27491 15.3662 5.67616 16.3037C4.84618 16.2775 4.03447 16.0533 3.30866 15.6499V15.7137C3.30862 16.921 3.7262 18.0912 4.49058 19.0257C5.25495 19.9603 6.31905 20.6017 7.50241 20.8412C6.73196 21.0502 5.92403 21.081 5.13991 20.9312C5.47357 21.9704 6.12393 22.8792 6.99991 23.5304C7.87589 24.1816 8.93361 24.5424 10.0249 24.5624C8.94036 25.4142 7.69852 26.0439 6.37042 26.4154C5.04233 26.7869 3.65402 26.8929 2.28491 26.7274C4.67456 28.2641 7.45629 29.08 10.2974 29.0774C19.9149 29.0774 25.1724 21.1112 25.1724 14.2024C25.1724 13.9774 25.1674 13.7499 25.1574 13.5262C26.1804 12.7866 27.0634 11.8694 27.7649 10.8199Z" fill="black"/>
</svg>
