<svg width="97" height="60" viewBox="0 0 97 60" fill="none" xmlns="http://www.w3.org/2000/svg">
<g clip-path="url(#clip0_1200_2322)">
<path d="M48.24 54H42.576V53.124L44.82 50.856C45.252 50.424 45.616 50.04 45.912 49.704C46.208 49.368 46.432 49.04 46.584 48.72C46.736 48.392 46.812 48.036 46.812 47.652C46.812 47.18 46.672 46.824 46.392 46.584C46.112 46.336 45.748 46.212 45.3 46.212C44.884 46.212 44.516 46.284 44.196 46.428C43.884 46.572 43.564 46.772 43.236 47.028L42.672 46.32C42.896 46.128 43.14 45.956 43.404 45.804C43.676 45.652 43.968 45.532 44.28 45.444C44.6 45.356 44.94 45.312 45.3 45.312C45.836 45.312 46.296 45.404 46.68 45.588C47.064 45.772 47.36 46.036 47.568 46.38C47.784 46.716 47.892 47.12 47.892 47.592C47.892 47.928 47.84 48.248 47.736 48.552C47.632 48.848 47.484 49.14 47.292 49.428C47.1 49.716 46.868 50.008 46.596 50.304C46.324 50.6 46.024 50.908 45.696 51.228L43.908 52.992V53.04H48.24V54ZM55.6432 49.704C55.6432 50.4 55.5912 51.02 55.4872 51.564C55.3832 52.108 55.2152 52.572 54.9832 52.956C54.7592 53.332 54.4632 53.62 54.0952 53.82C53.7352 54.02 53.2992 54.12 52.7872 54.12C52.1472 54.12 51.6152 53.944 51.1912 53.592C50.7752 53.24 50.4632 52.736 50.2552 52.08C50.0552 51.416 49.9552 50.624 49.9552 49.704C49.9552 48.776 50.0472 47.984 50.2312 47.328C50.4232 46.672 50.7272 46.172 51.1432 45.828C51.5592 45.476 52.1072 45.3 52.7872 45.3C53.4272 45.3 53.9592 45.476 54.3832 45.828C54.8072 46.172 55.1232 46.672 55.3312 47.328C55.5392 47.984 55.6432 48.776 55.6432 49.704ZM51.0112 49.704C51.0112 50.488 51.0672 51.14 51.1792 51.66C51.2992 52.18 51.4872 52.572 51.7432 52.836C52.0072 53.092 52.3552 53.22 52.7872 53.22C53.2192 53.22 53.5632 53.092 53.8192 52.836C54.0832 52.58 54.2752 52.192 54.3952 51.672C54.5152 51.144 54.5752 50.488 54.5752 49.704C54.5752 48.92 54.5152 48.272 54.3952 47.76C54.2752 47.24 54.0832 46.852 53.8192 46.596C53.5632 46.332 53.2192 46.2 52.7872 46.2C52.3552 46.2 52.0072 46.332 51.7432 46.596C51.4872 46.852 51.2992 47.24 51.1792 47.76C51.0672 48.272 51.0112 48.92 51.0112 49.704ZM62.9744 54H57.3104V53.124L59.5544 50.856C59.9864 50.424 60.3504 50.04 60.6464 49.704C60.9424 49.368 61.1664 49.04 61.3184 48.72C61.4704 48.392 61.5464 48.036 61.5464 47.652C61.5464 47.18 61.4064 46.824 61.1264 46.584C60.8464 46.336 60.4824 46.212 60.0344 46.212C59.6184 46.212 59.2504 46.284 58.9304 46.428C58.6184 46.572 58.2984 46.772 57.9704 47.028L57.4064 46.32C57.6304 46.128 57.8744 45.956 58.1384 45.804C58.4104 45.652 58.7024 45.532 59.0144 45.444C59.3344 45.356 59.6744 45.312 60.0344 45.312C60.5704 45.312 61.0304 45.404 61.4144 45.588C61.7984 45.772 62.0944 46.036 62.3024 46.38C62.5184 46.716 62.6264 47.12 62.6264 47.592C62.6264 47.928 62.5744 48.248 62.4704 48.552C62.3664 48.848 62.2184 49.14 62.0264 49.428C61.8344 49.716 61.6024 50.008 61.3304 50.304C61.0584 50.6 60.7584 50.908 60.4304 51.228L58.6424 52.992V53.04H62.9744V54ZM70.0176 47.436C70.0176 47.82 69.9456 48.152 69.8016 48.432C69.6576 48.712 69.4496 48.94 69.1776 49.116C68.9136 49.292 68.6016 49.416 68.2416 49.488V49.536C68.9296 49.616 69.4416 49.832 69.7776 50.184C70.1136 50.536 70.2816 50.996 70.2816 51.564C70.2816 52.06 70.1656 52.504 69.9336 52.896C69.7016 53.28 69.3416 53.58 68.8536 53.796C68.3736 54.012 67.7536 54.12 66.9936 54.12C66.5456 54.12 66.1296 54.084 65.7456 54.012C65.3616 53.948 64.9936 53.828 64.6416 53.652V52.668C65.0016 52.844 65.3896 52.984 65.8056 53.088C66.2216 53.184 66.6216 53.232 67.0056 53.232C67.7736 53.232 68.3256 53.084 68.6616 52.788C69.0056 52.484 69.1776 52.068 69.1776 51.54C69.1776 51.18 69.0816 50.892 68.8896 50.676C68.7056 50.452 68.4336 50.288 68.0736 50.184C67.7136 50.08 67.2816 50.028 66.7776 50.028H65.9496V49.128H66.7896C67.2616 49.128 67.6536 49.06 67.9656 48.924C68.2856 48.788 68.5256 48.6 68.6856 48.36C68.8536 48.112 68.9376 47.828 68.9376 47.508C68.9376 47.092 68.7976 46.772 68.5176 46.548C68.2376 46.316 67.8576 46.2 67.3776 46.2C67.0736 46.2 66.7976 46.232 66.5496 46.296C66.3016 46.352 66.0696 46.436 65.8536 46.548C65.6456 46.652 65.4336 46.776 65.2176 46.92L64.6896 46.2C64.8976 46.04 65.1336 45.892 65.3976 45.756C65.6696 45.62 65.9696 45.512 66.2976 45.432C66.6256 45.352 66.9816 45.312 67.3656 45.312C68.2616 45.312 68.9256 45.512 69.3576 45.912C69.7976 46.312 70.0176 46.82 70.0176 47.436Z" fill="white"/>
<path d="M25.0406 33H23.4206V21.57H19.4066V20.148H29.0366V21.57H25.0406V33ZM42.337 26.556C42.337 27.552 42.211 28.458 41.959 29.274C41.707 30.078 41.329 30.774 40.825 31.362C40.333 31.95 39.715 32.4 38.971 32.712C38.239 33.024 37.387 33.18 36.415 33.18C35.407 33.18 34.531 33.024 33.787 32.712C33.043 32.388 32.425 31.938 31.933 31.362C31.441 30.774 31.075 30.072 30.835 29.256C30.595 28.44 30.475 27.534 30.475 26.538C30.475 25.218 30.691 24.066 31.123 23.082C31.555 22.098 32.209 21.33 33.085 20.778C33.973 20.226 35.089 19.95 36.433 19.95C37.717 19.95 38.797 20.226 39.673 20.778C40.549 21.318 41.209 22.086 41.653 23.082C42.109 24.066 42.337 25.224 42.337 26.556ZM32.185 26.556C32.185 27.636 32.335 28.566 32.635 29.346C32.935 30.126 33.397 30.726 34.021 31.146C34.657 31.566 35.455 31.776 36.415 31.776C37.387 31.776 38.179 31.566 38.791 31.146C39.415 30.726 39.877 30.126 40.177 29.346C40.477 28.566 40.627 27.636 40.627 26.556C40.627 24.936 40.291 23.67 39.619 22.758C38.947 21.834 37.885 21.372 36.433 21.372C35.461 21.372 34.657 21.582 34.021 22.002C33.397 22.41 32.935 23.004 32.635 23.784C32.335 24.552 32.185 25.476 32.185 26.556ZM56.4412 26.214H60.8872V32.514C60.1912 32.742 59.4892 32.91 58.7812 33.018C58.0732 33.126 57.2692 33.18 56.3692 33.18C55.0372 33.18 53.9152 32.916 53.0032 32.388C52.0912 31.848 51.3952 31.086 50.9152 30.102C50.4472 29.106 50.2132 27.93 50.2132 26.574C50.2132 25.23 50.4772 24.066 51.0052 23.082C51.5332 22.098 52.2892 21.336 53.2732 20.796C54.2692 20.244 55.4692 19.968 56.8732 19.968C57.5932 19.968 58.2712 20.034 58.9072 20.166C59.5552 20.298 60.1552 20.484 60.7072 20.724L60.0952 22.128C59.6392 21.924 59.1232 21.75 58.5472 21.606C57.9832 21.462 57.3952 21.39 56.7832 21.39C55.7632 21.39 54.8872 21.6 54.1552 22.02C53.4232 22.44 52.8652 23.04 52.4812 23.82C52.0972 24.588 51.9052 25.506 51.9052 26.574C51.9052 27.594 52.0672 28.5 52.3912 29.292C52.7272 30.072 53.2492 30.684 53.9572 31.128C54.6652 31.56 55.5952 31.776 56.7472 31.776C57.1312 31.776 57.4672 31.764 57.7552 31.74C58.0552 31.704 58.3252 31.662 58.5652 31.614C58.8172 31.566 59.0512 31.518 59.2672 31.47V27.654H56.4412V26.214ZM75.6709 26.556C75.6709 27.552 75.5449 28.458 75.2929 29.274C75.0409 30.078 74.6629 30.774 74.1589 31.362C73.6669 31.95 73.0489 32.4 72.3049 32.712C71.5729 33.024 70.7209 33.18 69.7489 33.18C68.7409 33.18 67.8649 33.024 67.1209 32.712C66.3769 32.388 65.7589 31.938 65.2669 31.362C64.7749 30.774 64.4089 30.072 64.1689 29.256C63.9289 28.44 63.8089 27.534 63.8089 26.538C63.8089 25.218 64.0249 24.066 64.4569 23.082C64.8889 22.098 65.5429 21.33 66.4189 20.778C67.3069 20.226 68.4229 19.95 69.7669 19.95C71.0509 19.95 72.1309 20.226 73.0069 20.778C73.8829 21.318 74.5429 22.086 74.9869 23.082C75.4429 24.066 75.6709 25.224 75.6709 26.556ZM65.5189 26.556C65.5189 27.636 65.6689 28.566 65.9689 29.346C66.2689 30.126 66.7309 30.726 67.3549 31.146C67.9909 31.566 68.7889 31.776 69.7489 31.776C70.7209 31.776 71.5129 31.566 72.1249 31.146C72.7489 30.726 73.2109 30.126 73.5109 29.346C73.8109 28.566 73.9609 27.636 73.9609 26.556C73.9609 24.936 73.6249 23.67 72.9529 22.758C72.2809 21.834 71.2189 21.372 69.7669 21.372C68.7949 21.372 67.9909 21.582 67.3549 22.002C66.7309 22.41 66.2689 23.004 65.9689 23.784C65.6689 24.552 65.5189 25.476 65.5189 26.556Z" fill="white"/>
<path d="M16.2 17H12.576V9.608H5.784V17H2.16V-0.136001H5.784V6.584H12.576V-0.136001H16.2V17ZM30.8756 17H21.0116V-0.136001H30.8756V2.84H24.6356V6.608H30.4436V9.584H24.6356V14H30.8756V17ZM45.4293 17L44.1813 12.92H37.9413L36.6933 17H32.7812L38.8293 -0.208H43.2693L49.3413 17H45.4293ZM42.0693 5.888C41.9893 5.616 41.8853 5.272 41.7573 4.856C41.6293 4.44 41.5013 4.016 41.3733 3.584C41.2453 3.152 41.1413 2.776 41.0613 2.456C40.9813 2.776 40.8693 3.176 40.7253 3.656C40.5973 4.12 40.4693 4.568 40.3413 5C40.2293 5.416 40.1413 5.712 40.0773 5.888L38.8533 9.872H43.3173L42.0693 5.888ZM52.0116 17V-0.136001H55.6356V14H62.5956V17H52.0116ZM72.2131 17H68.5891V2.888H63.9331V-0.136001H76.8691V2.888H72.2131V17ZM94.0516 17H90.4276V9.608H83.6356V17H80.0116V-0.136001H83.6356V6.584H90.4276V-0.136001H94.0516V17Z" fill="white"/>
<path d="M28.5 41.2222C27.0166 41.2222 25.5666 41.662 24.3332 42.4861C23.0999 43.3103 22.1386 44.4816 21.5709 45.852C21.0032 47.2225 20.8547 48.7305 21.1441 50.1853C21.4335 51.6402 22.1478 52.9766 23.1967 54.0255C24.2456 55.0744 25.582 55.7887 27.0368 56.0781C28.4917 56.3674 29.9997 56.2189 31.3701 55.6513C32.7406 55.0836 33.9119 54.1223 34.736 52.8889C35.5601 51.6556 36 50.2055 36 48.7222C35.9979 46.7337 35.207 44.8273 33.801 43.4212C32.3949 42.0151 30.4885 41.2243 28.5 41.2222ZM28.5 55.0683C27.2449 55.0683 26.0179 54.6961 24.9743 53.9988C23.9306 53.3015 23.1172 52.3103 22.6369 51.1507C22.1566 49.9911 22.0309 48.7151 22.2758 47.4841C22.5207 46.2531 23.1251 45.1223 24.0126 44.2348C24.9001 43.3472 26.0309 42.7428 27.2619 42.498C28.493 42.2531 29.769 42.3788 30.9286 42.8591C32.0882 43.3394 33.0793 44.1528 33.7766 45.1964C34.474 46.2401 34.8462 47.467 34.8462 48.7222C34.8442 50.4047 34.175 52.0177 32.9853 53.2075C31.7956 54.3972 30.1825 55.0664 28.5 55.0683ZM26.1923 48.7222C26.1923 49.2065 26.3447 49.6786 26.6279 50.0715C26.9111 50.4644 27.3108 50.7583 27.7702 50.9114C28.2297 51.0646 28.7258 51.0693 29.1881 50.9249C29.6504 50.7805 30.0555 50.4943 30.3462 50.1068C30.4381 49.9844 30.5748 49.9035 30.7264 49.8819C30.8779 49.8603 31.0318 49.8999 31.1542 49.9918C31.2766 50.0837 31.3575 50.2204 31.3791 50.372C31.4006 50.5235 31.3611 50.6774 31.2692 50.7998C30.8332 51.3808 30.2255 51.81 29.532 52.0265C28.8386 52.2429 28.0946 52.2357 27.4055 52.0059C26.7163 51.7761 26.117 51.3353 25.6923 50.746C25.2675 50.1566 25.039 49.4486 25.039 48.7222C25.039 47.9957 25.2675 47.2877 25.6923 46.6984C26.117 46.109 26.7163 45.6682 27.4055 45.4384C28.0946 45.2086 28.8386 45.2014 29.532 45.4179C30.2255 45.6343 30.8332 46.0635 31.2692 46.6445C31.3147 46.7051 31.3479 46.7741 31.3667 46.8475C31.3855 46.9209 31.3898 46.9973 31.3791 47.0724C31.3684 47.1474 31.343 47.2196 31.3045 47.2848C31.2659 47.3501 31.2148 47.4071 31.1542 47.4526C31.0936 47.4981 31.0246 47.5312 30.9512 47.55C30.8778 47.5689 30.8014 47.5731 30.7264 47.5624C30.6513 47.5517 30.5791 47.5264 30.5139 47.4878C30.4487 47.4492 30.3917 47.3982 30.3462 47.3376C30.0555 46.9501 29.6504 46.6639 29.1881 46.5194C28.7258 46.375 28.2297 46.3797 27.7702 46.5329C27.3108 46.6861 26.9111 46.9799 26.6279 47.3728C26.3447 47.7658 26.1923 48.2378 26.1923 48.7222Z" fill="white"/>
</g>
<defs>
<clipPath id="clip0_1200_2322">
<rect width="97" height="60" fill="white"/>
</clipPath>
</defs>
</svg>
