<svg width="30" height="30" viewBox="0 0 30 30" fill="none" xmlns="http://www.w3.org/2000/svg">
<path d="M27.765 10.8199C26.8111 11.2419 25.7996 11.5191 24.7638 11.6424C25.8551 10.9888 26.6716 9.96083 27.0613 8.74991C26.0363 9.35991 24.9125 9.78741 23.7425 10.0187C22.9558 9.17688 21.913 8.61861 20.7762 8.43064C19.6395 8.24267 18.4725 8.43552 17.4566 8.97922C16.4408 9.52293 15.633 10.387 15.1589 11.4371C14.6848 12.4873 14.571 13.6646 14.835 14.7862C12.7562 14.6821 10.7225 14.1421 8.86596 13.201C7.00943 12.2599 5.37158 10.9389 4.05878 9.32366C3.59415 10.1217 3.34998 11.0289 3.35128 11.9524C3.35128 13.7649 4.27503 15.3662 5.67628 16.3037C4.8463 16.2775 4.03459 16.0533 3.30878 15.6499V15.7137C3.30875 16.921 3.72633 18.0912 4.4907 19.0257C5.25507 19.9603 6.31918 20.6017 7.50253 20.8412C6.73209 21.0502 5.92415 21.081 5.14003 20.9312C5.47369 21.9704 6.12405 22.8792 7.00003 23.5304C7.87601 24.1816 8.93373 24.5424 10.025 24.5624C8.94048 25.4142 7.69864 26.0439 6.37054 26.4154C5.04245 26.7869 3.65414 26.8929 2.28503 26.7274C4.67469 28.2641 7.45642 29.08 10.2975 29.0774C19.915 29.0774 25.1725 21.1112 25.1725 14.2024C25.1725 13.9774 25.1675 13.7499 25.1575 13.5262C26.1805 12.7866 27.0635 11.8694 27.765 10.8199Z" fill="black"/>
</svg>
