<svg width="61" height="60" viewBox="0 0 61 60" fill="none" xmlns="http://www.w3.org/2000/svg">
<path d="M60.5895 30.4918C60.5895 14.195 47.1165 0.983643 30.4969 0.983643C13.8773 0.983643 0.404297 14.1948 0.404297 30.4918C0.404297 45.2201 11.4088 57.428 25.7949 59.6416V39.0216H18.1542V30.4918H25.7949V23.9908C25.7949 16.5953 30.2877 12.5103 37.1612 12.5103C40.4538 12.5103 43.8975 13.0866 43.8975 13.0866V20.3484H40.103C36.3645 20.3484 35.1989 22.6231 35.1989 24.9567V30.4918H43.5448L42.2107 39.0216H35.1989V59.6416C49.585 57.428 60.5895 45.2203 60.5895 30.4918Z" fill="#1877F2"/>
<path d="M42.2107 39.0215L43.5449 30.4918H35.1989V24.9567C35.1989 22.6228 36.3648 20.3484 40.1031 20.3484H43.8976V13.0866C43.8976 13.0866 40.4538 12.5103 37.1613 12.5103C30.2877 12.5103 25.795 16.5953 25.795 23.9908V30.4918H18.1543V39.0215H25.795V59.6415C27.3504 59.8806 28.9225 60.0004 30.497 60C32.0714 60.0005 33.6435 59.8806 35.1989 59.6415V39.0215H42.2107Z" fill="white"/>
</svg>
