<svg width="61" height="60" viewBox="0 0 61 60" fill="none" xmlns="http://www.w3.org/2000/svg">
<path d="M20.9661 1.94111C14.9527 3.98671 9.76669 7.86934 6.16991 13.0187C2.57313 18.168 0.755125 24.3127 0.98294 30.5501C1.21075 36.7875 3.47238 42.7888 7.43561 47.6727C11.3988 52.5565 16.8548 56.0654 23.0021 57.6839C27.9858 58.9449 33.2072 59.0003 38.2176 57.8453C42.7565 56.8456 46.9528 54.7071 50.3957 51.6394C53.979 48.349 56.5799 44.1631 57.9189 39.5318C59.3737 34.4953 59.6327 29.199 58.6759 24.0492H30.6898V35.4329H46.8975C46.5735 37.2485 45.8794 38.9814 44.8566 40.5278C43.8337 42.0743 42.5033 43.4025 40.9448 44.4329C38.9659 45.7171 36.7348 46.581 34.3949 46.9688C32.0484 47.3967 29.6415 47.3967 27.295 46.9688C24.9165 46.4871 22.6665 45.5245 20.6887 44.1424C17.5109 41.9366 15.1247 38.803 13.8708 35.1885C12.5961 31.5064 12.5961 27.5147 13.8708 23.8325C14.7634 21.2515 16.2389 18.9016 18.1872 16.958C20.4169 14.693 23.2397 13.074 26.3459 12.2786C29.4521 11.4831 32.7218 11.542 35.7961 12.4488C38.1979 13.1714 40.3941 14.4345 42.2096 16.1373C44.0371 14.3545 45.8615 12.5671 47.6827 10.7751C48.6231 9.8115 49.6481 8.89398 50.5744 7.9073C47.8027 5.37844 44.5496 3.41055 41.0012 2.11632C34.5393 -0.184448 27.4688 -0.246279 20.9661 1.94111Z" fill="white"/>
<path d="M20.966 1.94115C27.4682 -0.247722 34.5387 -0.187519 41.0011 2.11175C44.5501 3.41477 47.8018 5.39214 50.5696 7.9304C49.6292 8.91708 48.6371 9.83921 47.6779 10.7982C45.8536 12.5841 44.0308 14.3638 42.2095 16.1374C40.3941 14.4345 38.1978 13.1714 35.7961 12.4488C32.7227 11.5389 29.4532 11.4766 26.3461 12.2688C23.2391 13.0609 20.4146 14.677 18.1825 16.9396C16.2341 18.8832 14.7586 21.2331 13.8661 23.8141L4.1189 16.414C7.6078 9.62971 13.6486 4.44024 20.966 1.94115Z" fill="#E33629"/>
<path d="M1.53274 23.7448C2.05625 21.1986 2.92605 18.7329 4.11882 16.4138L13.866 23.8324C12.5912 27.5145 12.5912 31.5063 13.866 35.1884C10.6185 37.6474 7.36945 40.1187 4.11882 42.6023C1.13378 36.7759 0.223393 30.1374 1.53274 23.7448Z" fill="#F8BD00"/>
<path d="M30.6898 24.0447H58.6759C59.6327 29.1945 59.3738 34.4908 57.9189 39.5273C56.58 44.1586 53.9791 48.3444 50.3958 51.6348C47.2502 49.2281 44.0904 46.8398 40.9448 44.433C42.5044 43.4015 43.8355 42.0719 44.8583 40.5238C45.8812 38.9757 46.5748 37.241 46.8975 35.4238H30.6898C30.6851 31.6338 30.6898 27.8392 30.6898 24.0447Z" fill="#587DBD"/>
<path d="M4.11426 42.6024C7.36488 40.1434 10.6139 37.6721 13.8614 35.1885C15.1178 38.8041 17.5074 41.938 20.6887 44.1424C22.6727 45.518 24.9275 46.4728 27.3091 46.9457C29.6556 47.3736 32.0625 47.3736 34.409 46.9457C36.7489 46.5578 38.98 45.694 40.9589 44.4098C44.1045 46.8166 47.2642 49.2049 50.4098 51.6116C46.9675 54.6811 42.7711 56.8211 38.2317 57.8222C33.2214 58.9772 27.9999 58.9218 23.0162 57.6608C19.0745 56.6288 15.3928 54.8096 12.2016 52.3171C8.82435 49.6872 6.06574 46.3736 4.11426 42.6024Z" fill="#319F43"/>
</svg>
