<svg width="33" height="33" viewBox="0 0 33 33" fill="none" xmlns="http://www.w3.org/2000/svg">
<g clip-path="url(#clip0_1394_2082)">
<path d="M31.0356 24.0625C31.5653 24.0628 32.0746 24.2668 32.4579 24.6323C32.8413 24.9978 33.0693 25.4968 33.0947 26.0259C33.1202 26.5549 32.9411 27.0735 32.5947 27.4742C32.2482 27.8748 31.7608 28.1268 31.2336 28.1779L31.0356 28.1875H9.03564C8.50597 28.1872 7.9967 27.9832 7.61336 27.6177C7.23002 27.2522 7.002 26.7532 6.97655 26.2241C6.95109 25.6951 7.13016 25.1765 7.47664 24.7759C7.82311 24.3752 8.31044 24.1232 8.83764 24.0721L9.03564 24.0625H31.0356ZM31.0356 14.4375C31.5827 14.4375 32.1073 14.6548 32.494 15.0416C32.8808 15.4284 33.0981 15.953 33.0981 16.5C33.0981 17.047 32.8808 17.5716 32.494 17.9584C32.1073 18.3452 31.5827 18.5625 31.0356 18.5625H9.03564C8.48864 18.5625 7.96403 18.3452 7.57724 17.9584C7.19044 17.5716 6.97314 17.047 6.97314 16.5C6.97314 15.953 7.19044 15.4284 7.57724 15.0416C7.96403 14.6548 8.48864 14.4375 9.03564 14.4375H31.0356ZM31.0356 4.8125C31.5827 4.8125 32.1073 5.0298 32.494 5.41659C32.8808 5.80339 33.0981 6.32799 33.0981 6.875C33.0981 7.42201 32.8808 7.94661 32.494 8.33341C32.1073 8.7202 31.5827 8.9375 31.0356 8.9375H9.03564C8.48864 8.9375 7.96403 8.7202 7.57724 8.33341C7.19044 7.94661 6.97314 7.42201 6.97314 6.875C6.97314 6.32799 7.19044 5.80339 7.57724 5.41659C7.96403 5.0298 8.48864 4.8125 9.03564 4.8125H31.0356Z" fill="white"/>
</g>
<defs>
<clipPath id="clip0_1394_2082">
<rect width="33" height="33" fill="white"/>
</clipPath>
</defs>
</svg>
