<svg width="25" height="21" viewBox="0 0 25 21" fill="none" xmlns="http://www.w3.org/2000/svg">
<path d="M20.8333 5.04249H10V12.0552H8.84615V9.6715C8.84481 8.32093 8.3636 7.02611 7.50809 6.0711C6.65258 5.11609 5.49264 4.5789 4.28276 4.57738H1.66667V0.856445H0V20.8564H1.66667V18.0807L23.3333 18.2742V20.8564H25V9.69365C24.9987 8.46052 24.5594 7.27829 23.7782 6.40633C22.9971 5.53437 21.938 5.04389 20.8333 5.04249ZM1.66667 6.43784H4.28276C5.05075 6.43881 5.78704 6.7798 6.33009 7.38599C6.87314 7.99219 7.17861 8.8141 7.17948 9.67139V12.0551H1.66667V6.43784ZM23.3333 16.4137L1.66667 16.2202V13.9157H23.3333V16.4137ZM23.3333 12.0552H11.6667V6.90296H20.8333C21.4961 6.9038 22.1316 7.19809 22.6003 7.72127C23.0689 8.24444 23.3326 8.95377 23.3333 9.69365V12.0552Z" fill="#264D7F"/>
</svg>
