<svg width="20" height="26" viewBox="0 0 20 26" fill="none" xmlns="http://www.w3.org/2000/svg">
<path d="M13.3333 12.428V4.53331L10 0.585938L6.66667 4.53331V7.16488H0V25.5859H20V12.428H13.3333ZM4.44444 22.9544H2.22222V20.3228H4.44444V22.9544ZM4.44444 17.6912H2.22222V15.0596H4.44444V17.6912ZM4.44444 12.428H2.22222V9.79646H4.44444V12.428ZM11.1111 22.9544H8.88889V20.3228H11.1111V22.9544ZM11.1111 17.6912H8.88889V15.0596H11.1111V17.6912ZM11.1111 12.428H8.88889V9.79646H11.1111V12.428ZM11.1111 7.16488H8.88889V4.53331H11.1111V7.16488ZM17.7778 22.9544H15.5556V20.3228H17.7778V22.9544ZM17.7778 17.6912H15.5556V15.0596H17.7778V17.6912Z" fill="#264D7F"/>
</svg>
