<svg width="20" height="21" viewBox="0 0 20 21" fill="none" xmlns="http://www.w3.org/2000/svg">
<path d="M19.7363 5.75235L19.972 7.03061C20.0077 7.22453 20.0077 7.4167 19.9777 7.59757C20.0047 7.72601 20.0072 7.86026 19.9851 7.99007C19.9629 8.11987 19.9167 8.2418 19.8499 8.34651C19.7831 8.45123 19.6975 8.53597 19.5997 8.59425C19.5019 8.65254 19.3945 8.68282 19.2856 8.68279H17.6749L16.6156 6.96366V6.96192C16.4461 6.68583 16.226 6.46178 15.9727 6.30763C15.7195 6.15349 15.4402 6.07351 15.1571 6.07409H14.9999V4.60452C14.9999 3.9767 14.5799 3.46539 14.0642 3.46539H13.0785C12.5628 3.46539 12.1428 3.9767 12.1428 4.60452V6.06539H7.85718V4.60452C7.85718 3.9767 7.43719 3.46539 6.92148 3.46539H5.93578C5.42008 3.46539 5.00009 3.9767 5.00009 4.60452V6.07409H4.84295C4.26581 6.07409 3.72654 6.40539 3.37868 6.96974L2.32442 8.68279H0.714445C0.605544 8.68282 0.498079 8.65254 0.400266 8.59425C0.302453 8.53597 0.216882 8.45123 0.150095 8.34651C0.0833082 8.2418 0.0370738 8.11987 0.0149268 7.99007C-0.00722025 7.86026 -0.0046935 7.72601 0.0223139 7.59757C-0.00895572 7.41024 -0.00700745 7.21695 0.0280282 7.03061L0.256596 5.75235C0.511223 4.36423 1.14654 3.12306 2.05795 2.23321C2.96935 1.34335 4.10249 0.857863 5.2708 0.856689H14.7292C15.8969 0.856828 17.0296 1.34211 17.9401 2.23229C18.8505 3.12248 19.4842 4.36427 19.7363 5.75235Z" fill="#264D7F"/>
<path d="M16.0426 7.48279L18.6568 11.7263C19.5286 13.1378 19.9999 14.856 19.9997 16.6219V19.5002C19.9997 20.248 19.4997 20.8567 18.8854 20.8567H1.11427C0.499991 20.8567 0 20.248 0 19.5002V16.6219C0 14.8567 0.471421 13.135 1.34283 11.7263L3.94993 7.49149C4.16421 7.14366 4.49278 6.94366 4.84277 6.94366H5.49276C5.61419 6.94366 5.71419 6.82192 5.71419 6.67409V4.60453C5.71419 4.4567 5.81419 4.33496 5.93561 4.33496H6.92131C7.04274 4.33496 7.14274 4.4567 7.14274 4.60453V6.67409C7.14274 6.82192 7.24273 6.94366 7.36416 6.94366H12.6355C12.7569 6.94366 12.8569 6.82192 12.8569 6.67409V4.60453C12.8569 4.4567 12.9569 4.33496 13.0783 4.33496H14.064C14.1855 4.33496 14.2855 4.4567 14.2855 4.60453V6.67409C14.2855 6.82192 14.3855 6.94366 14.5069 6.94366H15.1569C15.5069 6.94366 15.8354 7.14366 16.0426 7.48279ZM8.35557 11.2915C8.477 11.2915 8.57771 11.1698 8.57057 11.0202V9.82367C8.57038 9.75193 8.54694 9.68319 8.50534 9.63238C8.46374 9.58158 8.40735 9.55282 8.34843 9.55236H7.36487C7.24345 9.55236 7.14274 9.6741 7.14274 9.82367V11.0202C7.14274 11.1689 7.24273 11.2915 7.37273 11.2915H8.35557ZM10.4984 11.2915C10.5274 11.2918 10.5561 11.2849 10.5829 11.2712C10.6096 11.2575 10.6338 11.2374 10.654 11.2121C10.6741 11.1867 10.6899 11.1566 10.7002 11.1236C10.7105 11.0907 10.7153 11.0555 10.7141 11.0202V9.82367C10.7137 9.75185 10.6901 9.68311 10.6484 9.63233C10.6067 9.58155 10.5502 9.55282 10.4912 9.55236H9.50841C9.44936 9.55259 9.39279 9.58125 9.35104 9.63208C9.30928 9.68291 9.28574 9.75178 9.28556 9.82367V11.0202C9.28556 11.1689 9.38555 11.2915 9.51555 11.2915H10.4984ZM11.6577 11.2915H12.6412C12.6702 11.2918 12.6989 11.2849 12.7257 11.2712C12.7524 11.2575 12.7766 11.2374 12.7968 11.2121C12.8169 11.1867 12.8327 11.1566 12.843 11.1236C12.8534 11.0907 12.8581 11.0555 12.8569 11.0202V9.82367C12.8565 9.75185 12.8329 9.68311 12.7912 9.63233C12.7495 9.58155 12.6931 9.55282 12.6341 9.55236H11.6505C11.5291 9.55236 11.4284 9.6741 11.4284 9.82367V11.0202C11.4284 11.1689 11.5284 11.2915 11.6584 11.2915H11.6577ZM8.35557 13.9002C8.477 13.9002 8.57771 13.7785 8.57057 13.6289V12.4324C8.57038 12.3606 8.54694 12.2919 8.50534 12.2411C8.46374 12.1903 8.40735 12.1615 8.34843 12.1611H7.36487C7.24345 12.1611 7.14274 12.2828 7.14274 12.4324V13.6289C7.14274 13.7776 7.24273 13.9002 7.37273 13.9002H8.35557ZM9.51484 13.9002H10.4984C10.5274 13.9005 10.5561 13.8936 10.5829 13.8799C10.6096 13.8662 10.6338 13.8461 10.654 13.8208C10.6741 13.7954 10.6899 13.7653 10.7002 13.7323C10.7105 13.6994 10.7153 13.6642 10.7141 13.6289V12.4324C10.7137 12.3606 10.6901 12.2918 10.6484 12.241C10.6067 12.1902 10.5502 12.1615 10.4912 12.1611H9.50841C9.44936 12.1613 9.39279 12.1899 9.35104 12.2408C9.30928 12.2916 9.28574 12.3605 9.28556 12.4324V13.6289C9.28556 13.7776 9.38484 13.9002 9.51484 13.9002ZM12.6412 13.9002C12.6702 13.9005 12.6989 13.8936 12.7257 13.8799C12.7524 13.8662 12.7766 13.8461 12.7968 13.8208C12.8169 13.7954 12.8327 13.7653 12.843 13.7323C12.8534 13.6994 12.8581 13.6642 12.8569 13.6289V12.4324C12.8565 12.3606 12.8329 12.2918 12.7912 12.241C12.7495 12.1902 12.6931 12.1615 12.6341 12.1611H11.6505C11.5291 12.1611 11.4284 12.2828 11.4284 12.4324V13.6289C11.4284 13.7776 11.5284 13.9002 11.6584 13.9002H12.6412ZM7.37202 16.5089H8.35557C8.477 16.5089 8.57771 16.3872 8.57057 16.2376V15.0411C8.57038 14.9693 8.54694 14.9006 8.50534 14.8498C8.46374 14.799 8.40735 14.7702 8.34843 14.7698H7.36487C7.24345 14.7698 7.14274 14.8915 7.14274 15.0411V16.2376C7.14274 16.3863 7.24202 16.5089 7.37202 16.5089ZM10.4984 16.5089C10.5274 16.5092 10.5561 16.5023 10.5829 16.4886C10.6096 16.4749 10.6338 16.4548 10.654 16.4295C10.6741 16.4041 10.6899 16.374 10.7002 16.341C10.7105 16.3081 10.7153 16.2729 10.7141 16.2376V15.0411C10.7137 14.9693 10.6901 14.9005 10.6484 14.8497C10.6067 14.7989 10.5502 14.7702 10.4912 14.7698H9.50841C9.44936 14.77 9.39279 14.7986 9.35104 14.8495C9.30928 14.9003 9.28574 14.9692 9.28556 15.0411V16.2376C9.28556 16.3863 9.38555 16.5089 9.51555 16.5089H10.4984ZM11.6577 16.5089H12.6412C12.6702 16.5092 12.6989 16.5023 12.7257 16.4886C12.7524 16.4749 12.7766 16.4548 12.7968 16.4295C12.8169 16.4041 12.8327 16.374 12.843 16.341C12.8534 16.3081 12.8581 16.2729 12.8569 16.2376V15.0411C12.8565 14.9693 12.8329 14.9005 12.7912 14.8497C12.7495 14.7989 12.6931 14.7702 12.6341 14.7698H11.6505C11.5291 14.7698 11.4284 14.8915 11.4284 15.0411V16.2376C11.4284 16.3863 11.5284 16.5089 11.6584 16.5089H11.6577Z" fill="#264D7F"/>
</svg>
