<svg width="20" height="21" viewBox="0 0 20 21" fill="none" xmlns="http://www.w3.org/2000/svg">
<path d="M20 9.20947H15.83L19.07 5.96947L17.66 4.54947L13 9.20947H11V7.20947L15.66 2.54947L14.24 1.13947L11 4.37947V0.209473H9V4.37947L5.76 1.13947L4.34 2.54947L9 7.20947V9.20947H7L2.34 4.54947L0.93 5.96947L4.17 9.20947H0V11.2095H4.17L0.93 14.4495L2.34 15.8695L7 11.2095H9V13.2095L4.34 17.8695L5.76 19.2795L9 16.0395V20.2095H11V16.0395L14.24 19.2795L15.66 17.8695L11 13.2095V11.2095H13L17.66 15.8695L19.07 14.4495L15.83 11.2095H20V9.20947Z" fill="#264D7F"/>
</svg>
