<svg width="97" height="35" viewBox="0 0 97 35" fill="none" xmlns="http://www.w3.org/2000/svg">
<path d="M25.0406 34H23.4206V22.57H19.4066V21.148H29.0366V22.57H25.0406V34ZM42.337 27.556C42.337 28.552 42.211 29.458 41.959 30.274C41.707 31.078 41.329 31.774 40.825 32.362C40.333 32.95 39.715 33.4 38.971 33.712C38.239 34.024 37.387 34.18 36.415 34.18C35.407 34.18 34.531 34.024 33.787 33.712C33.043 33.388 32.425 32.938 31.933 32.362C31.441 31.774 31.075 31.072 30.835 30.256C30.595 29.44 30.475 28.534 30.475 27.538C30.475 26.218 30.691 25.066 31.123 24.082C31.555 23.098 32.209 22.33 33.085 21.778C33.973 21.226 35.089 20.95 36.433 20.95C37.717 20.95 38.797 21.226 39.673 21.778C40.549 22.318 41.209 23.086 41.653 24.082C42.109 25.066 42.337 26.224 42.337 27.556ZM32.185 27.556C32.185 28.636 32.335 29.566 32.635 30.346C32.935 31.126 33.397 31.726 34.021 32.146C34.657 32.566 35.455 32.776 36.415 32.776C37.387 32.776 38.179 32.566 38.791 32.146C39.415 31.726 39.877 31.126 40.177 30.346C40.477 29.566 40.627 28.636 40.627 27.556C40.627 25.936 40.291 24.67 39.619 23.758C38.947 22.834 37.885 22.372 36.433 22.372C35.461 22.372 34.657 22.582 34.021 23.002C33.397 23.41 32.935 24.004 32.635 24.784C32.335 25.552 32.185 26.476 32.185 27.556ZM56.4412 27.214H60.8872V33.514C60.1912 33.742 59.4892 33.91 58.7812 34.018C58.0732 34.126 57.2692 34.18 56.3692 34.18C55.0372 34.18 53.9152 33.916 53.0032 33.388C52.0912 32.848 51.3952 32.086 50.9152 31.102C50.4472 30.106 50.2132 28.93 50.2132 27.574C50.2132 26.23 50.4772 25.066 51.0052 24.082C51.5332 23.098 52.2892 22.336 53.2732 21.796C54.2692 21.244 55.4692 20.968 56.8732 20.968C57.5932 20.968 58.2712 21.034 58.9072 21.166C59.5552 21.298 60.1552 21.484 60.7072 21.724L60.0952 23.128C59.6392 22.924 59.1232 22.75 58.5472 22.606C57.9832 22.462 57.3952 22.39 56.7832 22.39C55.7632 22.39 54.8872 22.6 54.1552 23.02C53.4232 23.44 52.8652 24.04 52.4812 24.82C52.0972 25.588 51.9052 26.506 51.9052 27.574C51.9052 28.594 52.0672 29.5 52.3912 30.292C52.7272 31.072 53.2492 31.684 53.9572 32.128C54.6652 32.56 55.5952 32.776 56.7472 32.776C57.1312 32.776 57.4672 32.764 57.7552 32.74C58.0552 32.704 58.3252 32.662 58.5652 32.614C58.8172 32.566 59.0512 32.518 59.2672 32.47V28.654H56.4412V27.214ZM75.6709 27.556C75.6709 28.552 75.5449 29.458 75.2929 30.274C75.0409 31.078 74.6629 31.774 74.1589 32.362C73.6669 32.95 73.0489 33.4 72.3049 33.712C71.5729 34.024 70.7209 34.18 69.7489 34.18C68.7409 34.18 67.8649 34.024 67.1209 33.712C66.3769 33.388 65.7589 32.938 65.2669 32.362C64.7749 31.774 64.4089 31.072 64.1689 30.256C63.9289 29.44 63.8089 28.534 63.8089 27.538C63.8089 26.218 64.0249 25.066 64.4569 24.082C64.8889 23.098 65.5429 22.33 66.4189 21.778C67.3069 21.226 68.4229 20.95 69.7669 20.95C71.0509 20.95 72.1309 21.226 73.0069 21.778C73.8829 22.318 74.5429 23.086 74.9869 24.082C75.4429 25.066 75.6709 26.224 75.6709 27.556ZM65.5189 27.556C65.5189 28.636 65.6689 29.566 65.9689 30.346C66.2689 31.126 66.7309 31.726 67.3549 32.146C67.9909 32.566 68.7889 32.776 69.7489 32.776C70.7209 32.776 71.5129 32.566 72.1249 32.146C72.7489 31.726 73.2109 31.126 73.5109 30.346C73.8109 29.566 73.9609 28.636 73.9609 27.556C73.9609 25.936 73.6249 24.67 72.9529 23.758C72.2809 22.834 71.2189 22.372 69.7669 22.372C68.7949 22.372 67.9909 22.582 67.3549 23.002C66.7309 23.41 66.2689 24.004 65.9689 24.784C65.6689 25.552 65.5189 26.476 65.5189 27.556Z" fill="white"/>
<path d="M16.2 18H12.576V10.608H5.784V18H2.16V0.863999H5.784V7.584H12.576V0.863999H16.2V18ZM30.8756 18H21.0116V0.863999H30.8756V3.84H24.6356V7.608H30.4436V10.584H24.6356V15H30.8756V18ZM45.4293 18L44.1813 13.92H37.9413L36.6933 18H32.7812L38.8293 0.792H43.2693L49.3413 18H45.4293ZM42.0693 6.888C41.9893 6.616 41.8853 6.272 41.7573 5.856C41.6293 5.44 41.5013 5.016 41.3733 4.584C41.2453 4.152 41.1413 3.776 41.0613 3.456C40.9813 3.776 40.8693 4.176 40.7253 4.656C40.5973 5.12 40.4693 5.568 40.3413 6C40.2293 6.416 40.1413 6.712 40.0773 6.888L38.8533 10.872H43.3173L42.0693 6.888ZM52.0116 18V0.863999H55.6356V15H62.5956V18H52.0116ZM72.2131 18H68.5891V3.888H63.9331V0.863999H76.8691V3.888H72.2131V18ZM94.0516 18H90.4276V10.608H83.6356V18H80.0116V0.863999H83.6356V7.584H90.4276V0.863999H94.0516V18Z" fill="white"/>
</svg>
