<svg width="33" height="33" viewBox="0 0 33 33" fill="none" xmlns="http://www.w3.org/2000/svg">
<path d="M32.1855 29.9194C29.7931 25.7401 26.149 22.767 21.922 21.3883C23.9883 20.0737 25.5819 18.0897 26.458 15.7409C27.3341 13.3921 27.4443 10.8084 26.7717 8.38667C26.099 5.96491 24.6807 3.83895 22.7346 2.33528C20.7884 0.831614 18.422 0.0333768 15.9988 0.0631559C13.5756 0.0929349 11.2295 0.949083 9.3209 2.50012C7.41228 4.05116 6.04664 6.21133 5.4337 8.64889C4.82076 11.0865 4.99441 13.6666 5.92798 15.9932C6.86155 18.3197 8.50342 20.264 10.6014 21.5274C6.40954 23.008 2.83961 26.0697 0.550698 30.3081C0.466652 30.4547 0.411708 30.6174 0.389109 30.7865C0.36651 30.9556 0.376713 31.1277 0.419117 31.2927C0.461521 31.4577 0.535267 31.6122 0.636003 31.7472C0.736739 31.8821 0.862424 31.9947 1.00564 32.0784C1.14886 32.162 1.30672 32.215 1.46989 32.2342C1.63306 32.2534 1.79825 32.2384 1.95571 32.1902C2.11316 32.1419 2.2597 32.0613 2.38667 31.9532C2.51363 31.845 2.61846 31.7115 2.69497 31.5605C5.52646 26.3212 10.606 23.1514 16.2817 23.0816C21.9573 23.0119 27.1132 26.0559 30.0726 31.2241C30.1528 31.3732 30.2609 31.5041 30.3905 31.6091C30.5201 31.714 30.6685 31.791 30.8271 31.8354C30.9857 31.8798 31.1512 31.8907 31.3139 31.8675C31.4765 31.8443 31.633 31.7874 31.7742 31.7003C31.9153 31.6131 32.0382 31.4974 32.1356 31.3601C32.2329 31.2227 32.3029 31.0664 32.3412 30.9004C32.3795 30.7344 32.3855 30.5621 32.3588 30.3936C32.332 30.2251 32.2731 30.0639 32.1855 29.9194ZM7.53383 11.6803C7.51207 9.91021 7.99557 8.17362 8.92317 6.69019C9.85077 5.20676 11.1808 4.0431 12.7451 3.34638C14.3094 2.64965 16.0377 2.45115 17.7114 2.77597C19.3851 3.10079 20.9291 3.93434 22.1481 5.17122C23.3672 6.4081 24.2064 7.99276 24.5599 9.72479C24.9133 11.4568 24.765 13.2585 24.1336 14.9019C23.5023 16.5452 22.4164 17.9566 21.0132 18.9574C19.6099 19.9582 17.9524 20.5036 16.2502 20.5245C13.9684 20.55 11.7691 19.6332 10.135 17.9751C8.50092 16.317 7.56543 14.0532 7.53383 11.6803Z" fill="white"/>
</svg>
