<svg width="33" height="32" viewBox="0 0 33 32" fill="none" xmlns="http://www.w3.org/2000/svg">
<path d="M25.5342 22.9842L32.3634 29.646L30.162 31.9023L23.3343 25.2388C20.8494 27.2814 17.7413 28.414 14.5248 28.449C6.69943 28.5451 0.27038 22.2722 0.174214 14.4469C0.0780477 6.62151 6.351 0.19246 14.1763 0.0962942C22.0017 0.000128271 28.4307 6.27308 28.5269 14.0984C28.571 17.3148 27.5151 20.4498 25.5342 22.9842ZM22.36 21.8542C24.3338 19.7739 25.4164 17.0045 25.3766 14.1371C25.3018 8.04604 20.3062 3.17174 14.2151 3.24659C8.12395 3.32145 3.24966 8.31703 3.32451 14.4081C3.39937 20.4992 8.39495 25.3735 14.4861 25.2987C17.3536 25.268 20.0955 24.1177 22.1267 22.0934L22.36 21.8542Z" fill="white"/>
</svg>
