<svg width="61" height="60" viewBox="0 0 61 60" fill="none" xmlns="http://www.w3.org/2000/svg">
<path d="M54.8387 14.6917C54.8753 15.3323 54.8753 15.9724 54.8753 16.6187C54.8753 36.3082 42.4542 59.0164 19.7422 59.0164V59.005C13.0326 59.0164 6.46197 56.6971 0.814941 52.3242C1.7906 52.4661 2.77096 52.537 3.75367 52.5398C9.31474 52.5452 14.7159 50.2944 19.0891 46.149C16.5124 46.0902 14.0154 45.0612 11.947 43.2059C9.87873 41.3505 8.34256 38.7615 7.55333 35.8009C9.4045 36.2322 11.3116 36.1431 13.1285 35.5439C7.3676 34.1395 3.22329 28.0318 3.22329 20.9384V20.7495C4.94059 21.904 6.86263 22.5437 8.82756 22.6146C3.40102 18.2387 1.72947 9.52817 5.00581 2.71854C8.10576 7.32184 11.9735 11.0867 16.3577 13.7687C20.7419 16.4506 25.5446 17.9896 30.4538 18.2857C29.9645 15.743 30.0369 13.0898 30.6638 10.5914C31.2908 8.09305 32.4503 5.83709 34.0264 4.04915C38.9996 -1.59272 46.8213 -1.30334 51.496 4.69544C54.2614 4.03651 56.9132 2.813 59.3375 1.07756C58.4157 4.52788 56.4868 7.45672 53.9096 9.31936C56.3573 8.97109 58.7476 8.18013 61.0001 6.97307C59.3431 9.9677 57.2566 12.5815 54.8387 14.6917Z" fill="#1D9BF0"/>
</svg>
