<svg width="22" height="22" viewBox="0 0 22 22" fill="none" xmlns="http://www.w3.org/2000/svg">
<path fill-rule="evenodd" clip-rule="evenodd" d="M18.4265 1.17018L20.6634 2.83356C20.8795 3.02342 21.0012 3.2886 20.9996 3.56561C20.998 3.84263 20.8731 4.10655 20.6549 4.29418L18.955 6.19366L13.1713 12.6351C13.0701 12.7433 12.9353 12.8193 12.7856 12.8525L9.78591 13.4874C9.39236 13.5058 9.04974 13.2387 8.99884 12.8738V9.99529C9.00905 9.85651 9.06892 9.72497 9.16882 9.62179L14.8454 3.62857L16.7938 1.45564C17.1793 0.98381 17.8844 0.860535 18.4265 1.17018Z" stroke="white" stroke-width="1.5" stroke-linecap="round" stroke-linejoin="round"/>
<path d="M10.332 4.24243C10.7462 4.24243 11.082 3.90665 11.082 3.49243C11.082 3.07822 10.7462 2.74243 10.332 2.74243V4.24243ZM6.33236 3.49243V2.74243L6.33068 2.74243L6.33236 3.49243ZM1.00001 8.49457H1.75001L1.75001 8.49285L1.00001 8.49457ZM1.00001 15.9978L1.75001 15.9995V15.9978H1.00001ZM6.33236 20.9999L6.33068 21.7499H6.33236V20.9999ZM14.3316 20.9999V21.7499L14.3333 21.7499L14.3316 20.9999ZM19.6639 15.9978H18.9139L18.9139 15.9995L19.6639 15.9978ZM20.4139 10.9956C20.4139 10.5814 20.0782 10.2456 19.6639 10.2456C19.2497 10.2456 18.9139 10.5814 18.9139 10.9956H20.4139ZM15.5322 3.32534C15.3647 2.9465 14.9218 2.77515 14.5429 2.94263C14.1641 3.11011 13.9928 3.55299 14.1602 3.93184L15.5322 3.32534ZM19.1074 6.92286C19.5131 6.83912 19.7741 6.44239 19.6903 6.03672C19.6066 5.63106 19.2098 5.3701 18.8042 5.45384L19.1074 6.92286ZM5 16.4989C4.58579 16.4989 4.25 16.8346 4.25 17.2489C4.25 17.6631 4.58579 17.9989 5 17.9989V16.4989ZM15.6661 17.9989C16.0803 17.9989 16.4161 17.6631 16.4161 17.2489C16.4161 16.8346 16.0803 16.4989 15.6661 16.4989V17.9989ZM10.332 2.74243H6.33236V4.24243H10.332V2.74243ZM6.33068 2.74243C3.01413 2.74988 0.242637 5.27832 0.250014 8.49629L1.75001 8.49285C1.74475 6.19843 3.74755 4.24823 6.33404 4.24243L6.33068 2.74243ZM0.250013 8.49457V15.9978H1.75001V8.49457H0.250013ZM0.250014 15.9961C0.242637 19.214 3.01413 21.7425 6.33068 21.7499L6.33404 20.2499C3.74755 20.2441 1.74475 18.2939 1.75001 15.9995L0.250014 15.9961ZM6.33236 21.7499H14.3316V20.2499H6.33236V21.7499ZM14.3333 21.7499C17.6498 21.7425 20.4213 19.214 20.4139 15.9961L18.9139 15.9995C18.9192 18.2939 16.9164 20.2441 14.3299 20.2499L14.3333 21.7499ZM20.4139 15.9978V10.9956H18.9139V15.9978H20.4139ZM14.1602 3.93184C14.4284 4.53852 14.9755 5.39492 15.7815 6.04979C16.602 6.71648 17.7376 7.20564 19.1074 6.92286L18.8042 5.45384C17.99 5.62192 17.3007 5.35142 16.7274 4.88563C16.1396 4.40802 15.7239 3.75911 15.5322 3.32534L14.1602 3.93184ZM5 17.9989H15.6661V16.4989H5V17.9989Z" fill="white"/>
</svg>
